# xmcd
#
# Track frame offsets: 
#        182
#        19810
#        34982
#        51705
#        67872
#        87447
#        103282
#        116595
#        131502
#        144195
#        164125
#
# Disc length: 2371 seconds
#
# Revision: 0
# Processed by: cddbd v1.4PL0 Copyright (c) Steve Scherf et al.
# Submitted via: ExactAudioCopy v0.90b4
#
DISCID=a109410b
DTITLE=Keith Harling - Bring It On
DYEAR=1999
DGENRE=Country
TTITLE0=Bring It On
TTITLE1=Honey Do
TTITLE2=Over You
TTITLE3=Love Without Question
TTITLE4=As If
TTITLE5=Easy Makin' Love
TTITLE6=It Goes Something Like This
TTITLE7=Harmless
TTITLE8=Heartaches And Honky Tonks
TTITLE9=Four Walls
TTITLE10=Santa's Got A Semi
EXTD=
EXTT0=
EXTT1=
EXTT2=
EXTT3=
EXTT4=
EXTT5=
EXTT6=
EXTT7=
EXTT8=
EXTT9=
EXTT10=
PLAYORDER=
